# xmcd
#
# Track frame offsets:
#	150
#	14808
#	33974
#	56429
#	81317
#	121096
#	141322
#	157010
#	175142
#	190683
#	212529
#
# Disc length: 3125 seconds
#
# Revision: 0
# Processed by: cddbd v1.5.2PL0 Copyright (c) Steve Scherf et al.
# Submitted via: FairStars CD Ripper 1.90
#
DISCID=920c330b
DTITLE=Pat the White - Bootleg sessions - Pape-Georges Live
DYEAR=1999
DGENRE=Blues
TTITLE0=Every Morning
TTITLE1=I Need Some Lovin
TTITLE2=Stoop Down Baby
TTITLE3=Shout Baby Shout
TTITLE4=I Will Understand You
TTITLE5=Be Good to Me
TTITLE6=I Can't Get Enough
TTITLE7=Time and Time Again
TTITLE8=Waitin' for the Sunshine
TTITLE9=On the Road, In the Sky
TTITLE10=Mary Ann ?
EXTD=
EXTT0=
EXTT1=
EXTT2=
EXTT3=
EXTT4=
EXTT5=
EXTT6=
EXTT7=
EXTT8=
EXTT9=
EXTT10=
PLAYORDER=
